<svg height="90" viewBox="0 0 90 90" width="90" xmlns="http://www.w3.org/2000/svg"><g fill="none" fill-rule="evenodd"><circle cx="45" cy="45" fill="#1b2440" r="45"/><g fill="#fff" transform="translate(20.816356 25)"><g fill-rule="nonzero"><path d="m9.23244504-.50617284c.43261814 0 .86449646.02838731 1.29181816.08516709l.3195773.04790851 6.6937052 1.14901235c.4252746.0730008.709079.46692073.6338947.87984478-.0707617.38863441-.4343004.65559191-.831379.62479268l-.0747821-.00930718-6.6901702-1.14841368c-.3515926-.05873867-.71048566-.09420653-1.07154428-.10604412l-.28159816-.00444191c-2.74798615 0-5.28191075 1.36868878-6.59359074 3.59641919-1.01449689 1.72100946-1.58575084 3.78735529-1.58575084 6.24358083 0 2.2252878.57522028 4.4132962 1.67047357 6.3599799l.13392302.2324306 1.91928159 3.2509868c.97278642 1.6556509 1.56701689 3.4741164 1.73156115 5.3321048.34405992 3.8661952 1.52603137 7.6161831 3.4711255 11.0112386l.19705039.3383136 1.2692986 2.1466979c.1899874.3162341.5339092.509112.9092899.509112.5481901 0 .9998306-.4143383 1.0397562-.936979l.0028688-.0753667v-3.5837037c0-1.5845927.254495-3.1625656.7526655-4.6768967l.1028799-.3020007.5056732-1.4324692c.1400288-.3966732.58473-.6080213.9932678-.4720591.3845061.1279645.5999387.5179738.5072102.8941236l-.0210318.0702983-.5055454 1.4321068c-.4761908 1.3511731-.7352771 2.762384-.7677055 4.1824746l-.0034763.3044224v3.5837037c0 1.396255-1.1685224 2.5308642-2.6065626 2.5308642-.8925008 0-1.7159332-.4400343-2.1991335-1.166242l-.0637566-.1007876-1.27178558-2.1508678c-2.17582531-3.6750524-3.49507189-7.7597214-3.87024837-11.9755736-.13688115-1.5456236-.61276263-3.0645138-1.3906301-4.4631431l-.140398-.2455496-1.91861568-3.2498556c-1.31802221-2.2343144-2.01137351-4.7685017-2.01137351-7.3473634 0-2.72207549.64309101-5.04827108 1.79216088-6.9975722 1.56358032-2.65555301 4.53074602-4.29447499 7.75349742-4.35896964z"/><path d="m25.5807541-.50617284c3.3017595 0 6.3597632 1.65465105 7.9623226 4.37230534 1.1426424 1.94910648 1.7810608 4.26924692 1.7810608 6.9862132 0 2.4867865-.6447239 4.9320077-1.8720764 7.1059533l-.138767.2404215-1.2616285 2.1461728c-.2140834.36418-.6916887.4908976-1.0667614.2830315-.3530096-.1956386-.4893803-.6179293-.3257197-.9705529l.0342227-.0652282 1.2622176-2.1471732c1.1824064-2.0043346 1.8045751-4.2783047 1.8045751-6.5926248 0-2.45232965-.5672355-4.51377732-1.5753176-6.23335713-1.2884867-2.18503929-3.7412066-3.54524157-6.4210693-3.60461597l-.1934852-.00202692c-.3618062 0-.7227122.0237183-1.0758442.07049322l-.2632839.03939397-6.693653 1.14901234c-.4252746.07300136-.8309771-.20256036-.9061619-.61548432-.0707622-.38863431.1764724-.76043493.5603579-.86369313l.0735356-.01615248 6.6972028-1.1496135c.4396121-.07343572.8875759-.11647484 1.3376204-.12878133z"/><path d="m6.28967916 5.47724286c1.30951683-1.5021544 3.40630753-2.1605148 5.45240634-1.78324749l.170373.03384034 4.0453853.86049382c.4218648.08973487.6889336.49453654.5965148.90414982-.0869825.38551839-.4614029.63789854-.8568628.5914438l-.0743303-.01225268-4.0455547-.86052989c-1.5485444-.32974042-3.13362684.14527845-4.09309058 1.245882-.08057697.09284829-.14795434.17593529-.21166034.26245642-.56080238.7450709-.85034155 1.70266858-.85034155 2.7459531 0 .41932731-.35009936.7592593-.7819688.7592593-.43186945 0-.78196881-.33993199-.78196881-.7592593 0-1.35107454.38452666-2.62282591 1.14662682-3.6352611.08530922-.11596439.17772411-.22992664.28447162-.35292814z"/><path d="m44.9370886 26.0780247h-26.7172154c-.4318695 0-.7819688.3399319-.7819688.7592593v12.5328395c0 .4184597.348706.7580312.7796801.759256l26.7172154.0759292c.4327617.0012265.7842575-.3390639.7842575-.7592593v-12.6087654c0-.4193274-.3500993-.7592593-.7819688-.7592593zm-.782438 1.5185185v11.0882222l-25.1528086-.0718765v-11.0163457z"/><path d="m48.0910816 22.0691358c.4064654 0 .7404977.3011162.7783892.6861375l.0035796.0731218v9.9058024c0 .394661-.3101226.7189926-.70666.7557836l-.0753088.0034757h-.9436278c-.4318695 0-.7819688-.339932-.7819688-.7592593 0-.394661.3101226-.7189925.70666-.7557836l.0753088-.0034756h.161659v-8.387284h-21.3686009v.4707408c0 .394661-.3101226.7189925-.70666.7557835l-.0753088.0034757c-.4064654 0-.7404977-.3011162-.7783892-.6861375l-.0035796-.0731217v-1.23c0-.394661.3101226-.7189926.70666-.7557836l.0753088-.0034757z"/></g><path d="m24.6424437 34.7588889c0-.2581482-.0573966-.4606173-.1668201-.6124691-.1094756-.1518519-.3127875-.298642-.5995615-.4454321-.6255229-.2379013-1.084278-.5061729-1.3814261-.8098766-.2971481-.298642-.4431678-.7288889-.4431678-1.285679 0-.5061728.1460197-.9212346.4483288-1.2502469.2972003-.3239506.703824-.5162963 1.2199235-.5719753v-.9617284h.6776541v.9769136c.4900859.0809876.8758572.2935802 1.157366.6428395.2762435.3492592.4169979.8048148.4169979 1.3717284h-1.3189207c0-.3340741-.0573444-.5922223-.1771942-.7744445-.1146887-.1822222-.2815609-.2682716-.4900337-.2682716-.2189513 0-.3753972.0759259-.4691813.2277778-.0991015.1518518-.1459675.3593827-.1459675.6124691 0 .2379013.0520791.4251852.1616068.5669136.1042626.1417284.3075744.298642.6098836.465679.6099878.2176543 1.0635297.4859259 1.3658388.7997531.3024134.3188889.4535419.7541975.4535419 1.3059259 0 .5213581-.1459153.9414815-.4430635 1.2553087-.291935.3138271-.6985588.5011111-1.2094451.5567901v.9009877h-.6829715v-.895926c-.5265257-.0607407-.9539498-.2530864-1.292803-.5871605-.33364-.334074-.4952469-.8250617-.4796597-1.4679012l.0104263-.0253086h1.282481c0 .3998765.0729316.6833333.2241644.8503703.1459675.1720988.3440662.2530864.5942963.2530864.2345385 0 .4014106-.0708642.5108862-.222716.1094235-.1518519.1668201-.354321.1668201-.6074074z"/><path d="m39.4946378 30.6133333c.4318695 0 .7819689.339932.7819689.7592593 0 .394661-.3101227.7189925-.70666.7557836l-.0753089.0034757h-9.19074c-.4318694 0-.7819688-.339932-.7819688-.7592593 0-.394661.3101226-.7189925.70666-.7557836l.0753088-.0034757z" fill-rule="nonzero"/><path d="m39.4946378 34.2324691c.4318695 0 .7819689.339932.7819689.7592593 0 .394661-.3101227.7189925-.70666.7557836l-.0753089.0034757h-9.19074c-.4318694 0-.7819688-.339932-.7819688-.7592593 0-.394661.3101226-.7189925.70666-.7557836l.0753088-.0034757z" fill-rule="nonzero"/></g></g></svg>