<svg height="90" viewBox="0 0 90 90" width="90" xmlns="http://www.w3.org/2000/svg"><g fill="none" fill-rule="evenodd"><circle cx="45" cy="45" fill="#1b2440" r="45"/><g fill="#fff" fill-rule="nonzero" transform="translate(19 32)"><path d="m10.6922811 7h-.1438994c-1.6226772 0-3.15901578.57165628-4.33121707 1.6687898-1.73404418 1.623143-2.85364946 3.921134-3.49435759 6.6192855-.22962994.9670181-.3832548 1.9312097-.47480026 2.8602784-.05427065.5507773-.08069615 1.0208173-.0886175 1.3875071l-.00245938.1906582c-.04725294 2.0942199.21916704 3.7311067.74554315 4.9545886.64072027 1.4885155 2.05610538 2.3952649 3.574697 2.2928794.98378487-.0664257 2.02579847-.1121511 3.0467465-.1226974l2.20027115.0000411.5529087.0181028c.7205702.0269311 1.597178.0708453 2.5395876.1247387 1.659275.0952503 3.1820478-.9848834 3.7453336-2.6681987.3713187-1.1076064.5562837-2.5417242.5273784-4.3433851l-.010056-.5400322c-.007786-.2708178-.0272837-.6281914-.0640738-1.0506364-.0801471-.9202957-.222723-1.8885891-.4431161-2.8689158-.6283429-2.7949214-1.7612027-5.1810816-3.5486263-6.85419025-1.1721231-1.09706029-2.7088608-1.66881375-4.3312427-1.66881375zm-.1438994 1.55501572h.1438994c1.241433 0 2.3991467.43073503 3.2761015 1.25152973 1.5235336 1.42609575 2.5280499 3.54192405 3.0939373 6.05903815.2040722.9077301.3365896 1.807712.4109768 2.6618685l.0243444.3052736c.0279128.3870309.0382446.6925362.0382446.8982399.0484828 1.7806433-.1143015 3.1248677-.4409039 4.0990904-.3451198 1.0313507-1.240078 1.6661627-2.1901632 1.6116233l-.552038-.0308276c-.9958566-.0541965-1.896788-.095114-2.6078603-.1142577l-2.22896113-.000279c-1.06116413.0109206-2.13155889.0578915-3.14251044.1261514-.85213748.0574523-1.66486487-.4632117-2.05020581-1.3584323-.41191524-.9574349-.64092427-2.2960608-.62268881-4.0707751l.00452116-.3124379c.00340071-.3357332.02694834-.8077644.08326291-1.3792848.08499746-.8626149.22769863-1.7582465.44007889-2.6526227.57617204-2.4263769 1.56691562-4.4598791 3.04388869-5.8423921.87704611-.82088008 2.03436196-1.25150578 3.27607594-1.25150578z"/><path d="m26.6363678 7h-.1434322c-1.6227511 0-3.1594723.57170733-4.331596 1.66878999-1.7874116 1.67313051-2.9202682 4.05928841-3.5486315 6.85420621-.2204005.9803268-.3629862 1.9486207-.4431439 2.8689145l-.0265515.3334884c-.0266759.371208-.038782.6787679-.0413917.9107895l-.0005518.0947784c-.0467237 2.0910223.2197314 3.7279869.7462324 4.9504303.6405838 1.488228 2.055941 2.3949775 3.5745026 2.292592.9839016-.0664304 2.0257804-.1121513 3.0466864-.1226974l2.2002277.0000411.553115.018121c.7210669.0269631 1.5987117.0709295 2.5387807.1247192 1.6596845.0952373 3.1824262-.9847761 3.745791-2.6681729.3708742-1.1082498.5558198-2.5422354.5273177-4.3433189l-.0100035-.5399102c-.0078016-.2708605-.0273277-.6284267-.0641425-1.0508932-.0801958-.9202817-.2228123-1.8885727-.4432295-2.8688949-.6284083-2.7948936-1.761184-5.1810322-3.5483193-6.85413299-1.1729526-1.09727358-2.7091537-1.66885011-4.3316601-1.66885011zm-.1434322 1.5550159h.1434322c1.2416379 0 2.3989576.43060558 3.2766518 1.25167076 1.5231163 1.42592854 2.5275805 3.54178514 3.093537 6.05891974.2040979.907741.3366552 1.8077344.4110885 2.6618901l.0243632.3053138c.0279379.3871105.0382933.6927577.0382933.8981567.0480593 1.7801477-.114768 3.1245542-.4410264 4.0994826-.345043 1.0310271-1.2399921 1.6657749-2.1905224 1.6112308l-.5510071-.0307826c-.9945799-.0541424-1.8973063-.0951488-2.6082832-.1143013l-2.2289291-.0002794c-1.0611209.0109204-2.1313767.0578866-3.1424449.1261512-.8521242.0574525-1.6648355-.4632116-2.0501689-1.3584322-.4119634-.9565072-.641006-2.2951767-.6231812-4.0708417l.0061124-.4260046c.0057201-.2633366.023489-.6130718.0606506-1.039726.0743971-.8541556.2069238-1.754139.4110032-2.6618705.565907-2.5171166 1.5704235-4.6329491 3.0939553-6.05907148.8769484-.82080489 2.0346516-1.25150592 3.2764757-1.25150592z"/><path d="m41.5842045 7h-.1439514c-1.6223421 0-3.159083.57175862-4.3311784 1.66878988-1.7340494 1.62314312-2.853658 3.92113422-3.494368 6.61928582-.2296307.9670181-.383256 1.9312098-.4748017 2.8602785-.0542708.5507773-.0806964 1.0208174-.0886178 1.3875071l-.0024594.1906583c-.0468372 2.0955135.2196301 3.7325161.7462643 4.9549404.6405831 1.4881925 2.0558847 2.3949095 3.5745518 2.2925282.9837778-.066425 2.0257908-.1121514 3.0466576-.1226977l2.1998127.0000411.5528897.0181028c.7205578.0269309 1.5971922.0708449 2.5396701.1247389 1.659428.0952281 3.1817802-.9845907 3.7457665-2.6679255.389546-1.1640185.5738243-2.6868616.5210128-4.6166495l-.0017321-.1695491c-.005566-.2799404-.0250763-.6728833-.0664721-1.1481392-.0801596-.9202938-.2227485-1.8885876-.443154-2.8689144-.6283776-2.7949176-1.76126-5.1810753-3.5486866-6.85418177-1.1721669-1.0971513-2.7085114-1.66881383-4.331204-1.66881383zm-.1439514 1.5550158h.1439514c1.2417197 0 2.3990283.43062602 3.2760461 1.25151697 1.5235545 1.42611113 2.5280938 3.54194353 3.0940137 6.05905993.204084.9077314.3366137 1.8077147.4110125 2.6618703l.0243488.3052812c.0279187.3870461.0382555.6925791.0382555.898222.0484254 1.780201-.1142535 3.1245504-.4405204 4.0994823-.3454593 1.031095-1.2402336 1.6657669-2.1905687 1.6112309l-.821252-.0452727c-.8889569-.0470107-1.6922965-.0824085-2.338692-.0998118l-2.2285046-.000279c-1.0610837.0109206-2.1314771.0578924-3.1424166.1261514-.8522037.0574515-1.6648542-.4631754-2.0502119-1.3584324-.4120639-.9564835-.6411111-2.2951241-.6232074-4.0708027l.0044703-.3124105c.0034007-.3357333.0269484-.8077645.0832632-1.3792849.0849977-.8626149.2276993-1.7582465.4400802-2.6526228.5761737-2.426377 1.5669203-4.4598793 3.0438978-5.84239237.8769278-.820767 2.0346436-1.25150583 3.2760341-1.25150583z"/><path d="m13.9046736 18.0013388c3.1148292.2147158 6.2625775.3591997 9.4428906.4299499.4102551.0091266.7358249.3676535.7271805.8007921-.0086445.4331386-.3482298.7768682-.758485.7677416-3.2023268-.07124-6.3719131-.2167262-9.5084028-.4329352-.4094744-.0282264-.7197458-.4015685-.6930106-.8338827.0251625-.406884.3398819-.7209912.7182021-.7330045z"/><path d="m38.2519598 18.0010474c.4052172-.0231216.749862.3393544.7697857.8096128s-.2924184.870222-.6976356.8933437c-3.1511992.1798071-6.3254127.2798517-9.5253452.2959961-.4057029.0020376-.7360191-.3779806-.7377891-.8488027-.0017558-.4708221.3257023-.8541572.7314052-.856203 3.177793-.0160246 6.3300866-.1153783 9.459579-.2939469z"/><path d="m13.360818 15h-5.47773353c-.41362711 0-.74893813.3364594-.74893813.751503v5.496994c0 .4150436.33531102.751503.74893813.751503h5.47773353c.4136271 0 .7489381-.3364594.7489381-.751503v-5.496994c0-.4150436-.335311-.751503-.7489381-.751503zm-.7493875 1.5025551v3.993988h-3.97985726v-3.993988z"/><path d="m28.3085532 15h-5.4777335c-.4136271 0-.7489382.3364594-.7489382.751503v5.496994c0 .4150436.3353111.751503.7489382.751503h5.4777335c.4136271 0 .7489381-.3364594.7489381-.751503v-5.496994c0-.4150436-.335311-.751503-.7489381-.751503zm-.7493875 1.5025551v3.993988h-3.9798573v-3.993988z"/><path d="m44.2528576 15h-5.4778407c-.4135975 0-.7488845.3364594-.7488845.751503v5.496994c0 .4150436.335287.751503.7488845.751503h5.4778407c.4135975 0 .7488846-.3364594.7488846-.751503v-5.496994c0-.4150436-.3352871-.751503-.7488846-.751503zm-.7493338 1.5025551v3.993988h-3.9800717v-3.993988z"/><path d="m38.8375124-1c5.7935882 0 10.7801639 4.06591145 11.946615 9.70947154l.0374628.18869957 1.0900488 5.74999239c.4159688 2.1813107-1.1931674 4.2272456-3.4048212 4.3441811-.4202648.0222204-.7790079-.299741-.8012752-.7191209-.0209575-.3947105.2636091-.7350391.6475375-.7922373l.0731007-.0073509c1.2560788-.0664119 2.1817773-1.2031108 2.0048966-2.4413705l-.0167731-.1006028-1.0900886-5.75020123c-.9450441-4.96329617-5.2562879-8.57381752-10.3039419-8.6590789l-.1827614-.00154277h-26.5346941c-5.06472853 0-9.42531145 3.55167834-10.45044567 8.48130426l-.03559593.17877551-1.09100628 5.75261593c-.25357359 1.3194748.76262426 2.5456257 2.11326773 2.5456257.42085427 0 .76202407.3404515.76202407.7604196 0 .4199682-.3411698.7604197-.76202407.7604197-2.26673824 0-3.98276009-2.0225795-3.63120739-4.2325269l.02081973-.1185589 1.0907484-5.75126751c1.08044336-5.67749848 6.01557904-9.8060914 11.79061131-9.8961441l.1928081-.00150259z"/><path d="m3.97098038 17.000471.07641036.0059006 4.38833958.5333214c.43545812.0529219.74193568.4212981.6845368.8227913-.05402248.3778759-.41111765.6504106-.81598617.6370447l-.07641037-.0059006-4.38833958-.5333214c-.43545811-.0529219-.74193568-.4212981-.68453679-.8227913.05402247-.3778759.41111764-.6504106.81598617-.6370447z"/><path d="m48.083169 17.0072722c.4333576-.0558882.8347756.2164197.8965922.6082166.0581804.36875-.2051983.711921-.5976784.7976124l-.0750559.0129932-4.3936802.5666334c-.4333576.0558882-.8347756-.2164197-.8965923-.6082166-.0581803-.36875.2051984-.711921.5976785-.7976124l.0750559-.0129932z"/><path d="m26.0679443 13c.5179862 0 .9436662.3503979.9919539.7984332l.0045617.0850891v2.2329554c0 .4879559-.4461552.8835223-.9965156.8835223-.5179863 0-.9436663-.3503979-.991954-.7984332l-.0045617-.0850891v-2.2329554c0-.4879559.4461552-.8835223.9965157-.8835223z"/><path d="m26.0679443 20c.5179862 0 .9436662.3554754.9919539.810003l.0045617.0863221v2.2073498c0 .4950267-.4461552.8963251-.9965156.8963251-.5179863 0-.9436663-.3554754-.991954-.810003l-.0045617-.0863221v-2.2073498c0-.4950267.4461552-.8963251.9965157-.8963251z"/><path d="m41.0156794 13c.5179863 0 .9436663.3503979.991954.7984332l.0045617.0850891v2.2329554c0 .4879559-.4461552.8835223-.9965157.8835223-.5179862 0-.9436662-.3503979-.9919539-.7984332l-.0045617-.0850891v-2.2329554c0-.4879559.4461552-.8835223.9965156-.8835223z"/><path d="m41.0156794 20c.5179863 0 .9436663.3554754.991954.810003l.0045617.0863221v2.2073498c0 .4950267-.4461552.8963251-.9965157.8963251-.5179862 0-.9436662-.3554754-.9919539-.810003l-.0045617-.0863221v-2.2073498c0-.4950267.4461552-.8963251.9965156-.8963251z"/><path d="m11.1202091 13c.5179862 0 .9436662.3503979.9919539.7984332l.0045617.0850891v2.2329554c0 .4879559-.4461552.8835223-.9965156.8835223-.5179863 0-.9436663-.3503979-.991954-.7984332l-.0045617-.0850891v-2.2329554c0-.4879559.4461552-.8835223.9965157-.8835223z"/><path d="m11.1202091 20c.5179862 0 .9436662.3554754.9919539.810003l.0045617.0863221v2.2073498c0 .4950267-.4461552.8963251-.9965156.8963251-.5179863 0-.9436663-.3554754-.991954-.810003l-.0045617-.0863221v-2.2073498c0-.4950267.4461552-.8963251.9965157-.8963251z"/></g></g></svg>