<svg height="90" viewBox="0 0 90 90" width="90" xmlns="http://www.w3.org/2000/svg"><g fill="none" fill-rule="evenodd"><circle cx="45" cy="45" fill="#1b2440" r="45"/><g fill="#fff" fill-rule="nonzero" transform="translate(24 25)"><path d="m33.7074579.0003743c.4346378.01379906.7756676.36301292.7617114.78038809-.054767 1.63785859.3290627 2.83522113.9512524 3.79866742l.0849766.12714195c.5843445.85164893 1.2705608 1.37383584 3.6955381 2.9320242.8798075.56467258 1.7339165 1.05971045 2.5618927 1.49879107.7292482.38587102 1.24316 1.05278947 1.3834128 1.83300167.024102.1384071.037082.2504277.0369287.3467028.0259774 1.26391-.8364814 2.4734007-2.7337529 3.5431356l-.2314481.1273906c-.1169694.0654255-.2338436.1322077-.34677.1984849l-.2463599.1478422-.1858032.1173768.2368814.5631426.4270079.9937972c.0915924.2083274.1644916.3691817.2144321.4723344.3063736.6329384-.0199678.9980282-.7106009 1.457258-.3372317.224239-.8049164.4773084-1.3887555.7594864-.2305754.1114404-.4774521.2264754-.7384614.3444578-.1833432.0828755-.3708382.165961-.5610915.2488122l-.3785709.1621541 2.1476577 1.0417441c.9072475.4393046 1.4653697 1.3620975 1.3513976 2.3142102l-.0154458.1058879c-.0792595.466183-.3093589.8600962-.7668306 1.1048938l-.0701089.0344704c-.3399219.1628561-.5632067.4760102-.5887772.81327l-.0023543.0781992c.0044447.3286516.0700029.6150903.2054907.856775.331771.5931416.5490396 1.4150113.6805283 2.3940681.2317341 1.7392549-1.1261068 3.2924686-2.9494136 3.3668272l-2.5307908.091845c-2.567328.0886826-4.8003365.1502559-6.65353.1758154-1.9683503.0284543-3.5559484 1.537513-3.621244 3.4134319l-.0020894.120227v4.8794564c0 .4175903-.3525251.7561141-.7873869.7561141-.4092817 0-.7456286-.2998688-.7837826-.6832953l-.0036044-.0728188v-4.8794564c0-2.7573921 2.3036099-5.0042159 5.1749477-5.0457234l.9004449-.0146808c2.2702118-.0422884 5.0437859-.1308924 8.2426361-.2518765.8977723-.0366149 1.5666515-.8017358 1.4518734-1.6631932-.1011465-.7531283-.2598179-1.3798058-.4589019-1.7818104l-.0466521-.0887373c-.2661117-.4746919-.385642-.9969464-.393144-1.5517803-.0144-.9195663.5199744-1.7670961 1.3597697-2.2129267l.0926078-.0466215c-.0066078-.0017348-.0074787-.0071487-.006472-.0177253l.0028456-.0199219c.0502018-.2915713-.1175843-.6080912-.4194708-.786269l-.0720085-.0385879-3.6587247-1.7743477c-.6039051-.2928719-.5673808-1.1324501.0598576-1.3759332l.6109392-.2439552c.0481056-.0195519.0971847-.0395721.1471614-.0600357.5706273-.2336508 1.1409982-.4769067 1.6715502-.7167288.1868023-.084439.3654488-.1670305.5348681-.2474031l.1663038-.0796193c.471591-.2279268.8520516-.4310726 1.1164407-.5977646l.0719021-.0467665-.3521824-.8140765-.2611241-.6169057-.3104462-.7427632c-.0368705-.0889636-.0558092-.1838425-.0558092-.2795928 0-.2551923.0950649-.4205226.2429401-.5837724.0645017-.0712079.1395794-.1381959.2288906-.2084293.104182-.0819277.231251-.1706076.3802868-.2670532l.2038053-.1284375.0914834-.0557934c.11935-.0721593.2436531-.1450177.3695436-.2170535l.4307881-.2399379c1.4298632-.8063476 1.9556741-1.5437317 1.9420062-2.2161939l-.0081809-.0678992c-.00187-.0121397-.0040777-.0256542-.0066404-.0403864-.0563213-.3132849-.2719438-.5931047-.591537-.7622131-.8659211-.4592026-1.7577653-.97611166-2.6766667-1.56587534l-.5326746-.34387489c-2.3051668-1.49647842-2.9906546-2.07079023-3.7089721-3.17261103-.7783678-1.20526823-1.2541275-2.68940766-1.1886718-4.64692232.0139563-.41737517.3776136-.74486017.8122514-.73185532z"/><path d="m20.4783828-.99960681c.4260776.01326284.7603847.35866803.7466958.77148408-.0426152 1.2851461.2543371 2.21973381.734876 2.97038448l.0784211.11773999c.448587.65208915.9931644 1.06796328 2.887278 2.29589184.696727.45114799 1.3731664.84672569 2.0278713 1.19698536.6181274.32997204 1.0545568.90143014 1.174054 1.57183813.0203509.11806252.0314367.21478655.0312858.29865852.0218657 1.07115173-.695461 2.08615431-2.2496163 2.97024811l-.1819201.1010311c-.1382714.0780321-.2763325.1584674-.4036861.2361542l-.1105316.0680666.2659492.6339641c.1288667.304478.2360926.5527283.3128996.7236427l.0731121.1585396c.2901451.6048436-.0008982.9333741-.6144853 1.3450385-.2444635.164014-.5697551.3450067-.9691759.5442009l-.1532445.0755534c-.1231239.0600414-.2519834.1213419-.3860772.1837539l-.3711265.1696392-.3057357.1347848 1.4366048.7031042c.7713561.3768466 1.2480069 1.1680133 1.1555638 1.9885532l-.0145392.1026926c-.0695361.4129505-.2745876.7668674-.6891732.9900068l-.0565281.0277107c-.2190778.1070373-.364186.307948-.3859512.5233267l-.0027809.064967c.0032458.2426474.0504157.4505897.1462612.6230493.2741273.494578.4508422 1.1690324.5575902 1.9707587.1951523 1.477972-.9489188 2.7983753-2.48532 2.8615349l-2.277751.0828697c-1.9338579.0663603-3.6218012.1124716-5.0337836.1321099-1.4821134.0216098-2.6787729 1.1633005-2.7376795 2.5861152l-.0022729.1099876v3.9173656c0 .413029-.3455823.7478552-.7718798.7478552-.4012211 0-.7309437-.2965935-.7683463-.6758318l-.0035335-.0720234v-3.9173656c0-2.2906243 1.8967437-4.1571798 4.2610181-4.1916516l.5381593-.0085303c1.8370397-.0324818 4.1036089-.1050273 6.7329692-.2053593.6290861-.0258624 1.0977527-.5667631 1.0172441-1.1764923-.0781175-.5866953-.1999422-1.0738509-.3484009-1.3801942l-.107747-.2084625c-.1748909-.3655345-.2545911-.7602253-.2601344-1.1747527-.0117283-.7525551.3992211-1.447946 1.0539499-1.8433628l.1034216-.0592043.0022847-.0189876c.0035119-.1578369-.0941531-.32572-.2602673-.4293136l-.0578616-.0320481-2.9112734-1.4244648c-.5920162-.2896692-.5562153-1.120081.0586717-1.3609065l.1630813-.0648345c.1318766-.0528641.279039-.112689.4376071-.1781983.4525279-.1869529.9048044-.381571 1.3251702-.573289.1970981-.0898914.3826235-.177114.5545208-.2609397l.2607392-.1299311c.2057408-.1049638.3819626-.2013187.5236823-.2866002l.0456709-.0287545-.0710784-.1640256-.2656721-.6267612-.3525292-.8486311c-.036144-.0879914-.0547095-.1818335-.0547095-.2765374 0-.363468.1290477-.5072047.4287035-.7449562.108384-.0859935.2442947-.1793114.4073765-.2825763l.1448265-.0899383.2969754-.1759949.3436851-.19314597c1.0520968-.59862755 1.4511205-1.12763511 1.4727121-1.59913215l.0007531-.05863847c0 .00133199-.0028607-.0236279-.0096308-.062973-.0371576-.20844239-.1811921-.39704031-.3977-.51261808-.6919223-.37017012-1.4053726-.7873916-2.1404181-1.26335191l-.6581186-.43012276c-1.6666331-1.10093427-2.198904-1.5679724-2.7596376-2.43582218-.6336453-.98980222-1.0207363-2.20808028-.9676359-3.8094275.0136889-.41281605.3701901-.73671792.7962677-.72345509z"/><path d="m11.5728979 6.68363562-.0051312-.02895705c-.0214708-.12186853-.1071986-.23545482-.239923-.30717602-.5611681-.30377219-1.1388901-.64558892-1.7342648-1.03569299l-.46948054-.31011041c-1.40943056-.93922391-1.85417247-1.32931608-2.32792587-2.07127663-.52557677-.83076836-.84639619-1.85247183-.80260957-3.18955942.01383625-.42250995.37442682-.75402575.80540158-.74046125.43097476.01356449.76913234.36707267.75529608.78958262-.03318957 1.01349149.1964654 1.7448664.56719329 2.33088087l.07028526.10615449c.34435848.50029419.77834018.83385083 2.26986947 1.81228082.5565818.36468587 1.0968644.68435109 1.6205186.9678165.5389279.29122305.9203345.79657324 1.025091 1.3912436.0177012.10394235.027471.19018562.0273186.2658401.0181506.90034858-.5481349 1.74540822-1.750609 2.47475006l-.2855148.16452852c-.0732056.04180121-.1463166.08444865-.2167806.12666414l-.0795145.04841045.2938997.70276338c.0785086.1841962.1396555.3233427.1776405.4034343.1803432.3803652.0627564.7049408-.1667011.9669986-.1000762.1142947-.2250799.2165279-.3817041.3228484-.2286809.1552342-.5380443.326131-.92243037.5157918l-.31323004.1508471-.16618816.0774593-.08018573.0358236.8604645.4265575c.6762048.3342652 1.095776 1.0361087 1.0176932 1.767881l-.0137549.0999409c-.0627587.3772648-.250354.7059388-.6342498.9167611l-.0522602.0260593c-.1224743.0617907-.2040023.171612-.2210909.2876942l-.0033115.0500053c.0023212.1741031.0348265.3190852.0987424.4354655.2317928.4231179.3781952.9885013.4664737 1.6590244.1688477 1.2942675-.82163274 2.4509544-2.15220204 2.5063971l-2.10943302.0769576c-1.44296609.0490044-2.70865334.0831179-3.778645.0981652-1.1006962.0162413-1.99074485.868766-2.04529799 1.9352955l-.00265016.1038597v3.1899991c0 .4227276-.34955408.7654161-.78075088.7654161-.40583229 0-.73934438-.3035579-.77717683-.6917014l-.00357406-.0737147v-3.1899991c0-1.9508091 1.59643012-3.5404577 3.58650144-3.569822l1.03325157-.0190267c1.36046686-.0302296 2.97632476-.0840548 4.81390291-.1549784.41284313-.0172037.72021804-.3761573.6673037-.7817652-.05989349-.4549214-.1522446-.8318961-.26015306-1.0639085l-.03282236-.0651878c-.1934248-.352192-.27944432-.7358613-.28481737-1.1389782-.0101538-.6627759.34344616-1.2744876.907707-1.626462l.0140115-.0084292-.01280893-.0317533c-.02049325-.0395914-.05340201-.0778595-.0969896-.1085649l-.04708288-.0279534-2.3429293-1.1600136c-.59881066-.2964786-.56259011-1.1463811.05935983-1.3928579l.39048035-.1592045.09015954-.0375667c.36251447-.1515387.72477462-.309267 1.06110511-.4644734l.30182268-.142139.1406233-.0685192c.16252189-.0801903.30719234-.1553137.43083562-.2236968l.10870438-.062386-.50269748-1.21403828c-.03655478-.09005263-.05533121-.18609219-.05533121-.28301356 0-.25045588.08835019-.40730194.22348546-.55959127.05311663-.05985925.11180021-.11330988.18001271-.16806892.0693385-.05566296.15056478-.11396521.24405563-.17629198l.21641159-.13837968.18064415-.10905488.3391317-.19402966c.7963239-.45848481 1.086036-.84080779 1.1060978-1.16664946z"/></g></g></svg>